{"title":"18+ Feed 2017 Movies DVDRip XviD AAC New Source with Sample ☻rDX","magnet":"magnet:?xt=urn:btih:8c73150b2769323e9d5bd7e57d39b55eb7f27872&dn=18%2B+Feed+2017+Movies+DVDRip+XviD+AAC+New+Source+with+Sample+%E2%98%BBrDX&tr=udp%3A%2F%2Ftracker.leechers-paradise.org%3A6969&tr=udp%3A%2F%2Fzer0day.ch%3A1337&tr=udp%3A%2F%2Fopen.demonii.com%3A1337&tr=udp%3A%2F%2Ftracker.coppersurfer.tk%3A6969&tr=udp%3A%2F%2Fexodus.desync.com%3A6969","uploader":"basicssom","categoryP":"video","categoryS":"movies","size":"739509769","seeders":"0","leechers":"150","description":"----------------------------------------------------------------\r\n18+ Feed 2017 Movies DVDRip XviD AAC New Source with Sample &#x263B;rDX&#x263B;\r\n\r\nSCREEN SHOTS &amp; POSTER:\r\n   <a href=\"\nhttp://postimage.co.nr/2017/7/gadgets/index.html\" rel=\"nofollow\" target=\"_NEW\">\nhttp://postimage.co.nr/2017/7/gadgets/index.html</a>  <a href=\"\nhttp://postimage.co.nr/2017/7/gadgets/1.html\" rel=\"nofollow\" target=\"_NEW\">\nhttp://postimage.co.nr/2017/7/gadgets/1.html</a>   <a href=\"\nhttp://postimage.co.nr/2017/7/gadgets/2.html\" rel=\"nofollow\" target=\"_NEW\">\nhttp://postimage.co.nr/2017/7/gadgets/2.html</a>   <a href=\"\nhttp://postimage.co.nr/2017/7/gadgets/3.html\" rel=\"nofollow\" target=\"_NEW\">\nhttp://postimage.co.nr/2017/7/gadgets/3.html</a>   <a href=\"\nhttp://postimage.co.nr/2017/7/gadgets/4.html\" rel=\"nofollow\" target=\"_NEW\">\nhttp://postimage.co.nr/2017/7/gadgets/4.html</a>   <a href=\"\nhttp://postimage.co.nr/2017/7/gadgets/5.html\" rel=\"nofollow\" target=\"_NEW\">\nhttp://postimage.co.nr/2017/7/gadgets/5.html</a>   <a href=\"\nhttp://postimage.co.nr/2017/7/gadgets/6.html\" rel=\"nofollow\" target=\"_NEW\">\nhttp://postimage.co.nr/2017/7/gadgets/6.html</a>   <a href=\"\nhttp://postimage.co.nr/2017/7/gadgets/7.html\" rel=\"nofollow\" target=\"_NEW\">\nhttp://postimage.co.nr/2017/7/gadgets/7.html</a>   <a href=\"\nhttp://postimage.co.nr/2017/7/gadgets/8.html\" rel=\"nofollow\" target=\"_NEW\">\nhttp://postimage.co.nr/2017/7/gadgets/8.html</a>   <a href=\"\nhttp://postimage.co.nr/2017/7/gadgets/9.html\" rel=\"nofollow\" target=\"_NEW\">\nhttp://postimage.co.nr/2017/7/gadgets/9.html</a>   <a href=\"\nhttp://postimage.co.nr/2017/7/gadgets/10.html\" rel=\"nofollow\" target=\"_NEW\">\nhttp://postimage.co.nr/2017/7/gadgets/10.html</a>\r\n\r\nFile size                                : 698 MiB\r\nDuration                                 : 1 h 35 min\r\nOverall bit rate mode                    : Constant\r\nOverall bit rate                         : 1 022 kb/s\r\nMovie name                               : 18+ Feed 2017 Movies DVDRip XviD AAC New Source &#x263B;rDX&#x263B;\r\n\r\nVideo\r\nID                                       : 2\r\nFormat                                   : AVC\r\nFormat/Info                              : Advanced Video Codec\r\nFormat profile                           : <a class=\"__cf_email__\" href=\"/cdn-cgi/l/email-protection\" data-cfemail=\"f9b4989097b9b5ca\">[email&#xA0;protected]</a><script data-cfhash=\"f9e31\" type=\"text/javascript\">/* <![CDATA[ */!function(t,e,r,n,c,a,p){try{t=document.currentScript||function(){for(t=document.getElementsByTagName('script'),e=t.length;e--;)if(t[e].getAttribute('data-cfhash'))return t[e]}();if(t&&(c=t.previousSibling)){p=t.parentNode;if(a=c.getAttribute('data-cfemail')){for(e='',r='0x'+a.substr(0,2)|0,n=2;a.length-n;n+=2)e+='%'+('0'+('0x'+a.substr(n,2)^r).toString(16)).slice(-2);p.replaceChild(document.createTextNode(decodeURIComponent(e)),c)}p.removeChild(t)}}catch(u){}}()/* ]]> */</script>\r\nFormat settings, CABAC                   : Yes\r\nFormat settings, ReFrames                : 2 frames\r\nFormat settings, GOP                     : M=1, N=12\r\nCodec ID                                 : V_MPEG4/ISO/AVC\r\nDuration                                 : 1 h 35 min\r\nBit rate mode                            : Constant\r\nBit rate                                 : 575 kb/s\r\nWidth                                    : 720 pixels\r\nHeight                                   : 304 pixels\r\nDisplay aspect ratio                     : 2.35:1\r\nFrame rate mode                          : Constant\r\nFrame rate                               : 23.976 (24000/1001) FPS\r\nColor space                              : YUV\r\nChroma subsampling                       : 4:2:0\r\nBit depth                                : 8 bits\r\nScan type                                : Progressive\r\nBits/(Pixel*Frame)                       : 0.110\r\nStream size                              : 378 MiB (54%)\r\nTitle                                    : &#x263B;rDX&#x263B;\r\nDefault                                  : Yes\r\nForced                                   : No\r\n\r\nAudio\r\nID                                       : 1\r\nFormat                                   : AC-3\r\nFormat/Info                              : Audio Coding 3\r\nMode extension                           : CM (complete main)\r\nFormat settings, Endianness              : Big\r\nCodec ID                                 : A_AC3\r\nDuration                                 : 1 h 35 min\r\nBit rate mode                            : Constant\r\nBit rate                                 : 448 kb/s\r\nChannel(s)                               : 6 channels\r\nChannel positions                        : Front: L C R, Side: L R, LFE\r\nSampling rate                            : 48.0 kHz\r\nFrame rate                               : 31.250 FPS (1536 spf)\r\nBit depth                                : 16 bits\r\nCompression mode                         : Lossy\r\nStream size                              : 306 MiB (44%)\r\nTitle                                    : &#x263B;rDX&#x263B;\r\nDefault                                  : Yes\r\nForced                                   : No","last_updated":"2017-07-08T12:03:30.439Z","parsed":{"xt":"urn:btih:8c73150b2769323e9d5bd7e57d39b55eb7f27872","dn":"18  Feed 2017 Movies DVDRip XviD AAC New Source with Sample ☻rDX","tr":["udp://exodus.desync.com:6969","udp://open.demonii.com:1337","udp://tracker.coppersurfer.tk:6969","udp://tracker.leechers-paradise.org:6969","udp://zer0day.ch:1337"],"infoHash":"8c73150b2769323e9d5bd7e57d39b55eb7f27872","infoHashBuffer":{"type":"Buffer","data":[140,115,21,11,39,105,50,62,157,91,215,229,125,57,181,94,183,242,120,114]},"name":"18  Feed 2017 Movies DVDRip XviD AAC New Source with Sample ☻rDX","announce":["udp://exodus.desync.com:6969","udp://open.demonii.com:1337","udp://tracker.coppersurfer.tk:6969","udp://tracker.leechers-paradise.org:6969","udp://zer0day.ch:1337"],"urlList":[]}}